<svg version="1.1" viewBox="0.0 0.0 350.17847769028873 312.59842519685037" fill="none" stroke="none" stroke-linecap="square" stroke-miterlimit="10" xmlns:xlink="http://www.w3.org/1999/xlink" xmlns="http://www.w3.org/2000/svg"><clipPath id="p.0"><path d="m0 0l350.17847 0l0 312.59842l-350.17847 0l0 -312.59842z" clip-rule="nonzero"/></clipPath><g clip-path="url(#p.0)"><path fill="#000000" fill-opacity="0.0" d="m0 0l350.17847 0l0 312.59842l-350.17847 0z" fill-rule="evenodd"/><path fill="#000000" fill-opacity="0.0" d="m40.99475 291.24408l0 -278.42517" fill-rule="evenodd"/><path stroke="#000000" stroke-width="1.0" stroke-linejoin="round" stroke-linecap="butt" d="m40.99475 291.24408l0 -272.42517" fill-rule="evenodd"/><path fill="#000000" stroke="#000000" stroke-width="1.0" stroke-linecap="butt" d="m42.646484 18.818897l-1.6517334 -4.5380974l-1.6517334 4.5380974z" fill-rule="evenodd"/><path fill="#000000" fill-opacity="0.0" d="m28.186352 278.43307l277.57483 0" fill-rule="evenodd"/><path stroke="#000000" stroke-width="1.0" stroke-linejoin="round" stroke-linecap="butt" d="m28.186352 278.43307l271.57483 0" fill-rule="evenodd"/><path fill="#000000" stroke="#000000" stroke-width="1.0" stroke-linecap="butt" d="m299.76117 280.0848l4.538086 -1.6517334l-4.538086 -1.6517334z" fill-rule="evenodd"/><path fill="#1155cc" d="m74.30708 228.03674l0 0c0 -2.826645 2.2914581 -5.118103 5.1181107 -5.118103l0 0c1.3574066 0 2.6592255 0.53923035 3.6190567 1.499054c0.95983124 0.95983887 1.499054 2.2616425 1.499054 3.619049l0 0c0 2.8266602 -2.2914505 5.1181183 -5.1181107 5.1181183l0 0c-2.8266525 0 -5.1181107 -2.2914581 -5.1181107 -5.1181183z" fill-rule="evenodd"/><path stroke="#000000" stroke-width="1.0" stroke-linejoin="round" stroke-linecap="butt" d="m74.30708 228.03674l0 0c0 -2.826645 2.2914581 -5.118103 5.1181107 -5.118103l0 0c1.3574066 0 2.6592255 0.53923035 3.6190567 1.499054c0.95983124 0.95983887 1.499054 2.2616425 1.499054 3.619049l0 0c0 2.8266602 -2.2914505 5.1181183 -5.1181107 5.1181183l0 0c-2.8266525 0 -5.1181107 -2.2914581 -5.1181107 -5.1181183z" fill-rule="evenodd"/><path fill="#1155cc" d="m106.53281 205.82939l0 0c0 -2.826645 2.2914581 -5.118103 5.1181107 -5.118103l0 0c1.3574066 0 2.6592178 0.53923035 3.619049 1.499054c0.95983124 0.95983887 1.4990616 2.2616425 1.4990616 3.619049l0 0c0 2.8266602 -2.2914581 5.1181183 -5.1181107 5.1181183l0 0c-2.8266525 0 -5.1181107 -2.2914581 -5.1181107 -5.1181183z" fill-rule="evenodd"/><path stroke="#000000" stroke-width="1.0" stroke-linejoin="round" stroke-linecap="butt" d="m106.53281 205.82939l0 0c0 -2.826645 2.2914581 -5.118103 5.1181107 -5.118103l0 0c1.3574066 0 2.6592178 0.53923035 3.619049 1.499054c0.95983124 0.95983887 1.4990616 2.2616425 1.4990616 3.619049l0 0c0 2.8266602 -2.2914581 5.1181183 -5.1181107 5.1181183l0 0c-2.8266525 0 -5.1181107 -2.2914581 -5.1181107 -5.1181183z" fill-rule="evenodd"/><path fill="#e06666" d="m224.77428 123.055115l0 0c0 -2.8266525 2.2914581 -5.1181107 5.1181183 -5.1181107l0 0c1.3574066 0 2.6592102 0.53923035 3.619049 1.4990616c0.9598236 0.95983124 1.499054 2.2616425 1.499054 3.619049l0 0c0 2.8266602 -2.2914581 5.1181183 -5.118103 5.1181183l0 0c-2.8266602 0 -5.1181183 -2.2914581 -5.1181183 -5.1181183z" fill-rule="evenodd"/><path stroke="#000000" stroke-width="1.0" stroke-linejoin="round" stroke-linecap="butt" d="m224.77428 123.055115l0 0c0 -2.8266525 2.2914581 -5.1181107 5.1181183 -5.1181107l0 0c1.3574066 0 2.6592102 0.53923035 3.619049 1.4990616c0.9598236 0.95983124 1.499054 2.2616425 1.499054 3.619049l0 0c0 2.8266602 -2.2914581 5.1181183 -5.118103 5.1181183l0 0c-2.8266602 0 -5.1181183 -2.2914581 -5.1181183 -5.1181183z" fill-rule="evenodd"/><path fill="#e06666" d="m252.73228 153.57742l0 0c0 -2.826645 2.2914581 -5.118103 5.1181183 -5.118103l0 0c1.3573914 0 2.6592102 0.53923035 3.619049 1.499054c0.95983887 0.95983887 1.499054 2.2616425 1.499054 3.619049l0 0c0 2.8266602 -2.2914429 5.1181183 -5.118103 5.1181183l0 0c-2.8266602 0 -5.1181183 -2.2914581 -5.1181183 -5.1181183z" fill-rule="evenodd"/><path stroke="#000000" stroke-width="1.0" stroke-linejoin="round" stroke-linecap="butt" d="m252.73228 153.57742l0 0c0 -2.826645 2.2914581 -5.118103 5.1181183 -5.118103l0 0c1.3573914 0 2.6592102 0.53923035 3.619049 1.499054c0.95983887 0.95983887 1.499054 2.2616425 1.499054 3.619049l0 0c0 2.8266602 -2.2914429 5.1181183 -5.118103 5.1181183l0 0c-2.8266602 0 -5.1181183 -2.2914581 -5.1181183 -5.1181183z" fill-rule="evenodd"/><path fill="#000000" fill-opacity="0.0" d="m116.76903 187.35957l92.62993 0l0 35.559067l-92.62993 0z" fill-rule="evenodd"/><path fill="#000000" d="m131.0034 209.15958l-0.015625 -0.875q-0.546875 0.53125 -1.09375 0.765625q-0.546875 0.21875 -1.15625 0.21875q-0.546875 0 -0.953125 -0.140625q-0.390625 -0.140625 -0.65625 -0.390625q-0.25 -0.25 -0.375 -0.578125q-0.125 -0.34375 -0.125 -0.75q0 -0.984375 0.734375 -1.53125q0.734375 -0.5625 2.171875 -0.5625l1.34375 0l0 -0.5625q0 -0.578125 -0.375 -0.921875q-0.359375 -0.359375 -1.125 -0.359375q-0.546875 0 -1.09375 0.125q-0.53125 0.125 -1.109375 0.34375l0 -1.015625q0.21875 -0.078125 0.484375 -0.15625q0.265625 -0.078125 0.546875 -0.125q0.296875 -0.0625 0.609375 -0.09375q0.328125 -0.046875 0.65625 -0.046875q0.59375 0 1.0625 0.140625q0.484375 0.125 0.8125 0.390625q0.328125 0.265625 0.5 0.671875q0.171875 0.40625 0.171875 0.953125l0 4.5l-1.015625 0zm-0.125 -2.96875l-1.4375 0q-0.421875 0 -0.734375 0.078125q-0.296875 0.078125 -0.5 0.234375q-0.1875 0.15625 -0.28125 0.375q-0.09375 0.21875 -0.09375 0.5q0 0.1875 0.0625 0.359375q0.0625 0.171875 0.1875 0.3125q0.125 0.125 0.328125 0.203125q0.21875 0.078125 0.515625 0.078125q0.390625 0 0.890625 -0.234375q0.515625 -0.234375 1.0625 -0.75l0 -1.15625zm5.4841156 -5.296875l-1.9375 0l0 -0.9375l3.078125 0l0 8.265625l1.953125 0l0 0.9375l-5.234375 0l0 -0.9375l2.140625 0l0 -7.328125zm9.812241 2.65625q0.171875 0.234375 0.265625 0.53125q0.109375 0.296875 0.109375 0.65625q0 0.5 -0.1875 0.921875q-0.171875 0.421875 -0.515625 0.71875q-0.34375 0.296875 -0.8125 0.46875q-0.46875 0.171875 -1.03125 0.171875q-0.421875 0 -0.78125 -0.09375q-0.34375 -0.09375 -0.5625 -0.21875q-0.125 0.1875 -0.203125 0.34375q-0.078125 0.15625 -0.078125 0.359375q0 0.25 0.234375 0.421875q0.234375 0.15625 0.625 0.171875l1.71875 0.0625q0.484375 0.015625 0.890625 0.125q0.421875 0.109375 0.71875 0.328125q0.296875 0.203125 0.453125 0.515625q0.171875 0.296875 0.171875 0.703125q0 0.4375 -0.1875 0.828125q-0.1875 0.390625 -0.578125 0.671875q-0.390625 0.296875 -1.0 0.46875q-0.609375 0.1875 -1.4375 0.1875q-0.796875 0 -1.359375 -0.125q-0.546875 -0.125 -0.90625 -0.359375q-0.359375 -0.21875 -0.53125 -0.53125q-0.15625 -0.3125 -0.15625 -0.671875q0 -0.484375 0.21875 -0.84375q0.21875 -0.359375 0.6875 -0.6875q-0.171875 -0.078125 -0.296875 -0.1875q-0.125 -0.125 -0.203125 -0.265625q-0.078125 -0.140625 -0.125 -0.296875q-0.03125 -0.15625 -0.03125 -0.296875q0 -0.421875 0.203125 -0.765625q0.203125 -0.359375 0.46875 -0.671875q-0.125 -0.15625 -0.21875 -0.296875q-0.09375 -0.140625 -0.15625 -0.296875q-0.0625 -0.171875 -0.109375 -0.359375q-0.03125 -0.203125 -0.03125 -0.453125q0 -0.5 0.1875 -0.921875q0.1875 -0.421875 0.515625 -0.71875q0.34375 -0.296875 0.8125 -0.46875q0.46875 -0.171875 1.046875 -0.171875q0.234375 0 0.453125 0.03125q0.21875 0.03125 0.390625 0.09375l2.375 0l0 0.921875l-1.046875 0zm-3.9375 6.546875q0 0.46875 0.484375 0.671875q0.484375 0.21875 1.34375 0.21875q0.53125 0 0.890625 -0.09375q0.375 -0.09375 0.59375 -0.265625q0.234375 -0.15625 0.328125 -0.359375q0.109375 -0.203125 0.109375 -0.421875q0 -0.390625 -0.328125 -0.578125q-0.328125 -0.1875 -1.0 -0.21875l-1.703125 -0.0625q-0.21875 0.140625 -0.359375 0.265625q-0.140625 0.140625 -0.21875 0.28125q-0.078125 0.140625 -0.109375 0.28125q-0.03125 0.140625 -0.03125 0.28125zm0.34375 -5.34375q0 0.3125 0.109375 0.578125q0.109375 0.265625 0.296875 0.453125q0.1875 0.171875 0.4375 0.28125q0.265625 0.09375 0.578125 0.09375q0.328125 0 0.59375 -0.109375q0.265625 -0.125 0.4375 -0.3125q0.1875 -0.203125 0.28125 -0.453125q0.09375 -0.25 0.09375 -0.53125q0 -0.3125 -0.109375 -0.5625q-0.09375 -0.265625 -0.28125 -0.4375q-0.1875 -0.1875 -0.453125 -0.28125q-0.25 -0.109375 -0.5625 -0.109375q-0.34375 0 -0.609375 0.125q-0.265625 0.109375 -0.453125 0.296875q-0.171875 0.1875 -0.265625 0.453125q-0.09375 0.25 -0.09375 0.515625zm11.905991 1.09375q0 0.75 -0.21875 1.390625q-0.21875 0.640625 -0.625 1.09375q-0.390625 0.4375 -0.984375 0.6875q-0.578125 0.25 -1.3125 0.25q-0.703125 0 -1.265625 -0.203125q-0.546875 -0.21875 -0.9375 -0.640625q-0.375 -0.4375 -0.59375 -1.0625q-0.203125 -0.625 -0.203125 -1.4375q0 -0.75 0.21875 -1.375q0.21875 -0.640625 0.609375 -1.09375q0.40625 -0.453125 0.984375 -0.703125q0.59375 -0.25 1.328125 -0.25q0.703125 0 1.25 0.21875q0.5625 0.21875 0.9375 0.640625q0.390625 0.421875 0.59375 1.046875q0.21875 0.625 0.21875 1.4375zm-1.15625 0.046875q0 -0.609375 -0.140625 -1.0625q-0.140625 -0.453125 -0.390625 -0.75q-0.234375 -0.296875 -0.59375 -0.453125q-0.359375 -0.15625 -0.796875 -0.15625q-0.5 0 -0.859375 0.203125q-0.359375 0.1875 -0.59375 0.53125q-0.234375 0.328125 -0.34375 0.765625q-0.109375 0.4375 -0.109375 0.921875q0 0.609375 0.140625 1.0625q0.140625 0.453125 0.375 0.765625q0.25 0.296875 0.59375 0.453125q0.359375 0.140625 0.796875 0.140625q0.515625 0 0.875 -0.1875q0.359375 -0.203125 0.59375 -0.53125q0.234375 -0.34375 0.34375 -0.78125q0.109375 -0.4375 0.109375 -0.921875zm3.0622406 -3.265625l1.03125 0l0.03125 1.203125q0.578125 -0.703125 1.140625 -1.015625q0.5625 -0.3125 1.140625 -0.3125q1.015625 0 1.53125 0.65625q0.53125 0.65625 0.484375 1.953125l-1.140625 0q0.015625 -0.859375 -0.25 -1.234375q-0.265625 -0.390625 -0.796875 -0.390625q-0.21875 0 -0.453125 0.078125q-0.234375 0.078125 -0.484375 0.265625q-0.234375 0.171875 -0.515625 0.453125q-0.265625 0.28125 -0.578125 0.671875l0 4.203125l-1.140625 0l0 -6.53125zm9.280991 0.9375l-1.9375 0l0 -0.9375l3.078125 0l0 5.59375l1.953125 0l0 0.9375l-5.234375 0l0 -0.9375l2.140625 0l0 -4.65625zm0.390625 -3.6875q0.203125 0 0.359375 0.078125q0.15625 0.0625 0.28125 0.1875q0.125 0.125 0.1875 0.28125q0.078125 0.15625 0.078125 0.359375q0 0.171875 -0.078125 0.34375q-0.0625 0.15625 -0.1875 0.28125q-0.125 0.125 -0.28125 0.203125q-0.15625 0.0625 -0.359375 0.0625q-0.1875 0 -0.34375 -0.0625q-0.15625 -0.078125 -0.28125 -0.203125q-0.125 -0.125 -0.203125 -0.28125q-0.0625 -0.171875 -0.0625 -0.34375q0 -0.203125 0.0625 -0.359375q0.078125 -0.15625 0.203125 -0.28125q0.125 -0.125 0.28125 -0.1875q0.15625 -0.078125 0.34375 -0.078125zm9.984116 9.1875q-0.390625 0.09375 -0.796875 0.140625q-0.40625 0.046875 -0.84375 0.046875q-1.21875 0 -1.828125 -0.546875q-0.609375 -0.5625 -0.609375 -1.71875l0 -3.40625l-1.828125 0l0 -0.953125l1.828125 0l0 -1.796875l1.140625 -0.296875l0 2.09375l2.9375 0l0 0.953125l-2.9375 0l0 3.3125q0 0.703125 0.375 1.0625q0.375 0.34375 1.09375 0.34375q0.3125 0 0.6875 -0.046875q0.375 -0.0625 0.78125 -0.15625l0 0.96875zm6.7184906 0.09375l0 -4.6875q0 -0.3125 -0.03125 -0.5q-0.015625 -0.203125 -0.0625 -0.3125q-0.046875 -0.109375 -0.125 -0.15625q-0.078125 -0.046875 -0.1875 -0.046875q-0.125 0 -0.234375 0.078125q-0.109375 0.078125 -0.25 0.25q-0.125 0.171875 -0.28125 0.46875q-0.140625 0.28125 -0.359375 0.703125l0 4.203125l-1.03125 0l0 -4.5625q0 -0.359375 -0.03125 -0.578125q-0.015625 -0.234375 -0.0625 -0.34375q-0.046875 -0.125 -0.125 -0.171875q-0.078125 -0.046875 -0.1875 -0.046875q-0.125 0 -0.234375 0.0625q-0.09375 0.0625 -0.21875 0.234375q-0.125 0.171875 -0.28125 0.46875q-0.15625 0.28125 -0.375 0.734375l0 4.203125l-1.046875 0l0 -6.53125l0.875 0l0.046875 1.234375q0.171875 -0.359375 0.328125 -0.625q0.15625 -0.265625 0.328125 -0.421875q0.171875 -0.15625 0.359375 -0.234375q0.203125 -0.078125 0.4375 -0.078125q0.515625 0 0.78125 0.34375q0.28125 0.34375 0.28125 1.078125q0.15625 -0.34375 0.3125 -0.609375q0.15625 -0.265625 0.328125 -0.4375q0.171875 -0.1875 0.375 -0.28125q0.203125 -0.09375 0.484375 -0.09375q1.21875 0 1.21875 1.90625l0 4.75l-1.03125 0zm8.359116 -3.3125q0 0.75 -0.21875 1.390625q-0.21875 0.640625 -0.625 1.09375q-0.390625 0.4375 -0.984375 0.6875q-0.578125 0.25 -1.3125 0.25q-0.703125 0 -1.265625 -0.203125q-0.546875 -0.21875 -0.9375 -0.640625q-0.375 -0.4375 -0.59375 -1.0625q-0.203125 -0.625 -0.203125 -1.4375q0 -0.75 0.21875 -1.375q0.21875 -0.640625 0.609375 -1.09375q0.40625 -0.453125 0.984375 -0.703125q0.59375 -0.25 1.328125 -0.25q0.703125 0 1.25 0.21875q0.5625 0.21875 0.9375 0.640625q0.390625 0.421875 0.59375 1.046875q0.21875 0.625 0.21875 1.4375zm-1.15625 0.046875q0 -0.609375 -0.140625 -1.0625q-0.140625 -0.453125 -0.390625 -0.75q-0.234375 -0.296875 -0.59375 -0.453125q-0.359375 -0.15625 -0.796875 -0.15625q-0.5 0 -0.859375 0.203125q-0.359375 0.1875 -0.59375 0.53125q-0.234375 0.328125 -0.34375 0.765625q-0.109375 0.4375 -0.109375 0.921875q0 0.609375 0.140625 1.0625q0.140625 0.453125 0.375 0.765625q0.25 0.296875 0.59375 0.453125q0.359375 0.140625 0.796875 0.140625q0.515625 0 0.875 -0.1875q0.359375 -0.203125 0.59375 -0.53125q0.234375 -0.34375 0.34375 -0.78125q0.109375 -0.4375 0.109375 -0.921875z" fill-rule="nonzero"/><path fill="#000000" fill-opacity="0.0" d="m83.698166 210.25722l87.1181 0l0 35.55905l-87.1181 0z" fill-rule="evenodd"/><path fill="#000000" d="m99.323166 228.6666q0 0.875 -0.25 1.53125q-0.234375 0.65625 -0.671875 1.09375q-0.421875 0.421875 -1.015625 0.640625q-0.578125 0.203125 -1.265625 0.203125q-0.3125 0 -0.625 -0.03125q-0.296875 -0.03125 -0.625 -0.109375l0 2.734375l-1.125 0l0 -9.203125l1.0 0l0.078125 1.09375q0.484375 -0.671875 1.03125 -0.9375q0.5625 -0.28125 1.203125 -0.28125q0.5625 0 0.984375 0.234375q0.421875 0.234375 0.703125 0.671875q0.296875 0.421875 0.4375 1.03125q0.140625 0.59375 0.140625 1.328125zm-1.15625 0.0625q0 -0.515625 -0.078125 -0.9375q-0.078125 -0.4375 -0.25 -0.734375q-0.15625 -0.3125 -0.40625 -0.484375q-0.25 -0.171875 -0.609375 -0.171875q-0.203125 0 -0.4375 0.0625q-0.21875 0.0625 -0.453125 0.234375q-0.234375 0.15625 -0.5 0.421875q-0.265625 0.265625 -0.5625 0.65625l0 3.15625q0.3125 0.140625 0.65625 0.21875q0.34375 0.0625 0.671875 0.0625q0.921875 0 1.4375 -0.609375q0.53125 -0.625 0.53125 -1.875zm3.1716156 -3.203125l1.03125 0l0.03125 1.203125q0.578125 -0.703125 1.140625 -1.015625q0.5625 -0.3125 1.140625 -0.3125q1.015625 0 1.53125 0.65625q0.53125 0.65625 0.484375 1.953125l-1.140625 0q0.015625 -0.859375 -0.25 -1.234375q-0.265625 -0.390625 -0.796875 -0.390625q-0.21875 0 -0.453125 0.078125q-0.234375 0.078125 -0.484375 0.265625q-0.234375 0.171875 -0.515625 0.453125q-0.265625 0.28125 -0.578125 0.671875l0 4.203125l-1.140625 0l0 -6.53125zm12.749741 3.21875q0 0.75 -0.21875 1.390625q-0.21875 0.640625 -0.625 1.09375q-0.390625 0.4375 -0.984375 0.6875q-0.578125 0.25 -1.3125 0.25q-0.703125 0 -1.265625 -0.203125q-0.546875 -0.21875 -0.9375 -0.640625q-0.375 -0.4375 -0.59375 -1.0625q-0.203125 -0.625 -0.203125 -1.4375q0 -0.75 0.21875 -1.375q0.21875 -0.640625 0.609375 -1.09375q0.40625 -0.453125 0.984375 -0.703125q0.59375 -0.25 1.328125 -0.25q0.703125 0 1.25 0.21875q0.5625 0.21875 0.9375 0.640625q0.390625 0.421875 0.59375 1.046875q0.21875 0.625 0.21875 1.4375zm-1.15625 0.046875q0 -0.609375 -0.140625 -1.0625q-0.140625 -0.453125 -0.390625 -0.75q-0.234375 -0.296875 -0.59375 -0.453125q-0.359375 -0.15625 -0.796875 -0.15625q-0.5 0 -0.859375 0.203125q-0.359375 0.1875 -0.59375 0.53125q-0.234375 0.328125 -0.34375 0.765625q-0.109375 0.4375 -0.109375 0.921875q0 0.609375 0.140625 1.0625q0.140625 0.453125 0.375 0.765625q0.25 0.296875 0.59375 0.453125q0.359375 0.140625 0.796875 0.140625q0.515625 0 0.875 -0.1875q0.359375 -0.203125 0.59375 -0.53125q0.234375 -0.34375 0.34375 -0.78125q0.109375 -0.4375 0.109375 -0.921875zm7.4997406 -2.34375q0.171875 0.234375 0.265625 0.53125q0.109375 0.296875 0.109375 0.65625q0 0.5 -0.1875 0.921875q-0.171875 0.421875 -0.515625 0.71875q-0.34375 0.296875 -0.8125 0.46875q-0.46875 0.171875 -1.03125 0.171875q-0.421875 0 -0.78125 -0.09375q-0.34375 -0.09375 -0.5625 -0.21875q-0.125 0.1875 -0.203125 0.34375q-0.078125 0.15625 -0.078125 0.359375q0 0.25 0.234375 0.421875q0.234375 0.15625 0.625 0.171875l1.71875 0.0625q0.484375 0.015625 0.890625 0.125q0.421875 0.109375 0.71875 0.328125q0.296875 0.203125 0.453125 0.515625q0.171875 0.296875 0.171875 0.703125q0 0.4375 -0.1875 0.828125q-0.1875 0.390625 -0.578125 0.671875q-0.390625 0.296875 -1.0 0.46875q-0.609375 0.1875 -1.4375 0.1875q-0.796875 0 -1.359375 -0.125q-0.546875 -0.125 -0.90625 -0.359375q-0.359375 -0.21875 -0.53125 -0.53125q-0.15625 -0.3125 -0.15625 -0.671875q0 -0.484375 0.21875 -0.84375q0.21875 -0.359375 0.6875 -0.6875q-0.171875 -0.078125 -0.296875 -0.1875q-0.125 -0.125 -0.203125 -0.265625q-0.078125 -0.140625 -0.125 -0.296875q-0.03125 -0.15625 -0.03125 -0.296875q0 -0.421875 0.203125 -0.765625q0.203125 -0.359375 0.46875 -0.671875q-0.125 -0.15625 -0.21875 -0.296875q-0.09375 -0.140625 -0.15625 -0.296875q-0.0625 -0.171875 -0.109375 -0.359375q-0.03125 -0.203125 -0.03125 -0.453125q0 -0.5 0.1875 -0.921875q0.1875 -0.421875 0.515625 -0.71875q0.34375 -0.296875 0.8125 -0.46875q0.46875 -0.171875 1.046875 -0.171875q0.234375 0 0.453125 0.03125q0.21875 0.03125 0.390625 0.09375l2.375 0l0 0.921875l-1.046875 0zm-3.9375 6.546875q0 0.46875 0.484375 0.671875q0.484375 0.21875 1.34375 0.21875q0.53125 0 0.890625 -0.09375q0.375 -0.09375 0.59375 -0.265625q0.234375 -0.15625 0.328125 -0.359375q0.109375 -0.203125 0.109375 -0.421875q0 -0.390625 -0.328125 -0.578125q-0.328125 -0.1875 -1.0 -0.21875l-1.703125 -0.0625q-0.21875 0.140625 -0.359375 0.265625q-0.140625 0.140625 -0.21875 0.28125q-0.078125 0.140625 -0.109375 0.28125q-0.03125 0.140625 -0.03125 0.28125zm0.34375 -5.34375q0 0.3125 0.109375 0.578125q0.109375 0.265625 0.296875 0.453125q0.1875 0.171875 0.4375 0.28125q0.265625 0.09375 0.578125 0.09375q0.328125 0 0.59375 -0.109375q0.265625 -0.125 0.4375 -0.3125q0.1875 -0.203125 0.28125 -0.453125q0.09375 -0.25 0.09375 -0.53125q0 -0.3125 -0.109375 -0.5625q-0.09375 -0.265625 -0.28125 -0.4375q-0.1875 -0.1875 -0.453125 -0.28125q-0.25 -0.109375 -0.5625 -0.109375q-0.34375 0 -0.609375 0.125q-0.265625 0.109375 -0.453125 0.296875q-0.171875 0.1875 -0.265625 0.453125q-0.09375 0.25 -0.09375 0.515625zm6.4841156 -2.125l1.03125 0l0.03125 1.203125q0.578125 -0.703125 1.140625 -1.015625q0.5625 -0.3125 1.140625 -0.3125q1.015625 0 1.53125 0.65625q0.53125 0.65625 0.484375 1.953125l-1.140625 0q0.015625 -0.859375 -0.25 -1.234375q-0.265625 -0.390625 -0.796875 -0.390625q-0.21875 0 -0.453125 0.078125q-0.234375 0.078125 -0.484375 0.265625q-0.234375 0.171875 -0.515625 0.453125q-0.265625 0.28125 -0.578125 0.671875l0 4.203125l-1.140625 0l0 -6.53125zm11.249741 6.53125l-0.015625 -0.875q-0.546875 0.53125 -1.09375 0.765625q-0.546875 0.21875 -1.15625 0.21875q-0.546875 0 -0.953125 -0.140625q-0.390625 -0.140625 -0.65625 -0.390625q-0.25 -0.25 -0.375 -0.578125q-0.125 -0.34375 -0.125 -0.75q0 -0.984375 0.734375 -1.53125q0.734375 -0.5625 2.171875 -0.5625l1.34375 0l0 -0.5625q0 -0.578125 -0.375 -0.921875q-0.359375 -0.359375 -1.125 -0.359375q-0.546875 0 -1.09375 0.125q-0.53125 0.125 -1.109375 0.34375l0 -1.015625q0.21875 -0.078125 0.484375 -0.15625q0.265625 -0.078125 0.546875 -0.125q0.296875 -0.0625 0.609375 -0.09375q0.328125 -0.046875 0.65625 -0.046875q0.59375 0 1.0625 0.140625q0.484375 0.125 0.8125 0.390625q0.328125 0.265625 0.5 0.671875q0.171875 0.40625 0.171875 0.953125l0 4.5l-1.015625 0zm-0.125 -2.96875l-1.4375 0q-0.421875 0 -0.734375 0.078125q-0.296875 0.078125 -0.5 0.234375q-0.1875 0.15625 -0.28125 0.375q-0.09375 0.21875 -0.09375 0.5q0 0.1875 0.0625 0.359375q0.0625 0.171875 0.1875 0.3125q0.125 0.125 0.328125 0.203125q0.21875 0.078125 0.515625 0.078125q0.390625 0 0.890625 -0.234375q0.515625 -0.234375 1.0625 -0.75l0 -1.15625zm7.9216156 2.96875l0 -4.6875q0 -0.3125 -0.03125 -0.5q-0.015625 -0.203125 -0.0625 -0.3125q-0.046875 -0.109375 -0.125 -0.15625q-0.078125 -0.046875 -0.1875 -0.046875q-0.125 0 -0.234375 0.078125q-0.109375 0.078125 -0.25 0.25q-0.125 0.171875 -0.28125 0.46875q-0.140625 0.28125 -0.359375 0.703125l0 4.203125l-1.03125 0l0 -4.5625q0 -0.359375 -0.03125 -0.578125q-0.015625 -0.234375 -0.0625 -0.34375q-0.046875 -0.125 -0.125 -0.171875q-0.078125 -0.046875 -0.1875 -0.046875q-0.125 0 -0.234375 0.0625q-0.09375 0.0625 -0.21875 0.234375q-0.125 0.171875 -0.28125 0.46875q-0.15625 0.28125 -0.375 0.734375l0 4.203125l-1.046875 0l0 -6.53125l0.875 0l0.046875 1.234375q0.171875 -0.359375 0.328125 -0.625q0.15625 -0.265625 0.328125 -0.421875q0.171875 -0.15625 0.359375 -0.234375q0.203125 -0.078125 0.4375 -0.078125q0.515625 0 0.78125 0.34375q0.28125 0.34375 0.28125 1.078125q0.15625 -0.34375 0.3125 -0.609375q0.15625 -0.265625 0.328125 -0.4375q0.171875 -0.1875 0.375 -0.28125q0.203125 -0.09375 0.484375 -0.09375q1.21875 0 1.21875 1.90625l0 4.75l-1.03125 0zm6.8591156 0l-0.015625 -0.875q-0.546875 0.53125 -1.09375 0.765625q-0.546875 0.21875 -1.15625 0.21875q-0.546875 0 -0.953125 -0.140625q-0.390625 -0.140625 -0.65625 -0.390625q-0.25 -0.25 -0.375 -0.578125q-0.125 -0.34375 -0.125 -0.75q0 -0.984375 0.734375 -1.53125q0.734375 -0.5625 2.171875 -0.5625l1.34375 0l0 -0.5625q0 -0.578125 -0.375 -0.921875q-0.359375 -0.359375 -1.125 -0.359375q-0.546875 0 -1.09375 0.125q-0.53125 0.125 -1.109375 0.34375l0 -1.015625q0.21875 -0.078125 0.484375 -0.15625q0.265625 -0.078125 0.546875 -0.125q0.296875 -0.0625 0.609375 -0.09375q0.328125 -0.046875 0.65625 -0.046875q0.59375 0 1.0625 0.140625q0.484375 0.125 0.8125 0.390625q0.328125 0.265625 0.5 0.671875q0.171875 0.40625 0.171875 0.953125l0 4.5l-1.015625 0zm-0.125 -2.96875l-1.4375 0q-0.421875 0 -0.734375 0.078125q-0.296875 0.078125 -0.5 0.234375q-0.1875 0.15625 -0.28125 0.375q-0.09375 0.21875 -0.09375 0.5q0 0.1875 0.0625 0.359375q0.0625 0.171875 0.1875 0.3125q0.125 0.125 0.328125 0.203125q0.21875 0.078125 0.515625 0.078125q0.390625 0 0.890625 -0.234375q0.515625 -0.234375 1.0625 -0.75l0 -1.15625z" fill-rule="nonzero"/><path fill="#000000" fill-opacity="0.0" d="m262.9685 135.7979l67.93701 0l0 35.55905l-67.93701 0z" fill-rule="evenodd"/><path fill="#000000" d="m278.281 157.50415q-0.390625 0.09375 -0.796875 0.140625q-0.40625 0.046875 -0.84375 0.046875q-1.21875 0 -1.828125 -0.546875q-0.609375 -0.5625 -0.609375 -1.71875l0 -3.40625l-1.828125 0l0 -0.953125l1.828125 0l0 -1.796875l1.140625 -0.296875l0 2.09375l2.9375 0l0 0.953125l-2.9375 0l0 3.3125q0 0.703125 0.375 1.0625q0.375 0.34375 1.09375 0.34375q0.3125 0 0.6875 -0.046875q0.375 -0.0625 0.78125 -0.15625l0 0.96875zm7.1403503 -0.140625q-0.453125 0.15625 -0.921875 0.234375q-0.453125 0.09375 -0.953125 0.09375q-1.546875 0 -2.390625 -0.84375q-0.828125 -0.84375 -0.828125 -2.453125q0 -0.765625 0.234375 -1.390625q0.25 -0.640625 0.671875 -1.09375q0.4375 -0.453125 1.046875 -0.6875q0.609375 -0.25 1.34375 -0.25q0.5 0 0.9375 0.078125q0.453125 0.0625 0.859375 0.234375l0 1.078125q-0.4375 -0.21875 -0.875 -0.3125q-0.4375 -0.109375 -0.90625 -0.109375q-0.4375 0 -0.828125 0.171875q-0.375 0.15625 -0.671875 0.46875q-0.296875 0.3125 -0.46875 0.765625q-0.15625 0.4375 -0.15625 1.015625q0 1.171875 0.5625 1.765625q0.578125 0.59375 1.609375 0.59375q0.453125 0 0.890625 -0.109375q0.4375 -0.109375 0.84375 -0.3125l0 1.0625zm7.827881 -3.15625q0 0.875 -0.25 1.53125q-0.234375 0.65625 -0.671875 1.09375q-0.421875 0.421875 -1.015625 0.640625q-0.578125 0.203125 -1.265625 0.203125q-0.3125 0 -0.625 -0.03125q-0.296875 -0.03125 -0.625 -0.109375l0 2.734375l-1.125 0l0 -9.203125l1.0 0l0.078125 1.09375q0.484375 -0.671875 1.03125 -0.9375q0.5625 -0.28125 1.203125 -0.28125q0.5625 0 0.984375 0.234375q0.421875 0.234375 0.703125 0.671875q0.296875 0.421875 0.4375 1.03125q0.140625 0.59375 0.140625 1.328125zm-1.15625 0.0625q0 -0.515625 -0.078125 -0.9375q-0.078125 -0.4375 -0.25 -0.734375q-0.15625 -0.3125 -0.40625 -0.484375q-0.25 -0.171875 -0.609375 -0.171875q-0.203125 0 -0.4375 0.0625q-0.21875 0.0625 -0.453125 0.234375q-0.234375 0.15625 -0.5 0.421875q-0.265625 0.265625 -0.5625 0.65625l0 3.15625q0.3125 0.140625 0.65625 0.21875q0.34375 0.0625 0.671875 0.0625q0.921875 0 1.4375 -0.609375q0.53125 -0.625 0.53125 -1.875z" fill-rule="nonzero"/><path fill="#000000" fill-opacity="0.0" d="m235.0105 105.27559l82.677155 0l0 35.55905l-82.677155 0z" fill-rule="evenodd"/><path fill="#000000" d="m250.30737 127.07559l-1.140625 0l0 -4.171875q0 -0.75 -0.28125 -1.125q-0.28125 -0.375 -0.8125 -0.375q-0.21875 0 -0.421875 0.0625q-0.203125 0.0625 -0.421875 0.21875q-0.203125 0.140625 -0.46875 0.40625q-0.25 0.265625 -0.578125 0.65625l0 4.328125l-1.125 0l0 -9.203125l1.125 0l0 2.671875l-0.03125 1.03125q0.265625 -0.328125 0.515625 -0.546875q0.265625 -0.21875 0.515625 -0.34375q0.25 -0.140625 0.515625 -0.203125q0.28125 -0.0625 0.5625 -0.0625q0.96875 0 1.5 0.609375q0.546875 0.59375 0.546875 1.78125l0 4.265625zm7.343506 -0.09375q-0.390625 0.09375 -0.796875 0.140625q-0.40625 0.046875 -0.84375 0.046875q-1.2187653 0 -1.8281403 -0.546875q-0.609375 -0.5625 -0.609375 -1.71875l0 -3.40625l-1.828125 0l0 -0.953125l1.828125 0l0 -1.796875l1.140625 -0.296875l0 2.09375l2.9375153 0l0 0.953125l-2.9375153 0l0 3.3125q0 0.703125 0.375 1.0625q0.375 0.34375 1.0937653 0.34375q0.3125 0 0.6875 -0.046875q0.375 -0.0625 0.78125 -0.15625l0 0.96875zm7.3278503 0q-0.390625 0.09375 -0.796875 0.140625q-0.40625 0.046875 -0.84375 0.046875q-1.21875 0 -1.828125 -0.546875q-0.609375 -0.5625 -0.609375 -1.71875l0 -3.40625l-1.828125 0l0 -0.953125l1.828125 0l0 -1.796875l1.140625 -0.296875l0 2.09375l2.9375 0l0 0.953125l-2.9375 0l0 3.3125q0 0.703125 0.375 1.0625q0.375 0.34375 1.09375 0.34375q0.3125 0 0.6875 -0.046875q0.375 -0.0625 0.78125 -0.15625l0 0.96875zm7.640381 -3.296875q0 0.875 -0.25 1.53125q-0.234375 0.65625 -0.671875 1.09375q-0.421875 0.421875 -1.015625 0.640625q-0.578125 0.203125 -1.265625 0.203125q-0.3125 0 -0.625 -0.03125q-0.296875 -0.03125 -0.625 -0.109375l0 2.734375l-1.125 0l0 -9.203125l1.0 0l0.078125 1.09375q0.484375 -0.671875 1.03125 -0.9375q0.5625 -0.28125 1.203125 -0.28125q0.5625 0 0.984375 0.234375q0.421875 0.234375 0.703125 0.671875q0.296875 0.421875 0.4375 1.03125q0.140625 0.59375 0.140625 1.328125zm-1.15625 0.0625q0 -0.515625 -0.078125 -0.9375q-0.078125 -0.4375 -0.25 -0.734375q-0.15625 -0.3125 -0.40625 -0.484375q-0.25 -0.171875 -0.609375 -0.171875q-0.203125 0 -0.4375 0.0625q-0.21875 0.0625 -0.453125 0.234375q-0.234375 0.15625 -0.5 0.421875q-0.265625 0.265625 -0.5625 0.65625l0 3.15625q0.3125 0.140625 0.65625 0.21875q0.34375 0.0625 0.671875 0.0625q0.921875 0 1.4375 -0.609375q0.53125 -0.625 0.53125 -1.875z" fill-rule="nonzero"/><path fill="#38761d" d="m50.249344 74.53412l0 0c0 -2.8266525 2.2914543 -5.1181107 5.1181107 -5.1181107l0 0c1.3574066 0 2.6592178 0.53923035 3.619049 1.4990616c0.95983124 0.95983124 1.4990616 2.2616425 1.4990616 3.619049l0 0c0 2.8266525 -2.2914581 5.1181107 -5.1181107 5.1181107l0 0c-2.8266563 0 -5.1181107 -2.2914581 -5.1181107 -5.1181107z" fill-rule="evenodd"/><path stroke="#000000" stroke-width="1.0" stroke-linejoin="round" stroke-linecap="butt" d="m50.249344 74.53412l0 0c0 -2.8266525 2.2914543 -5.1181107 5.1181107 -5.1181107l0 0c1.3574066 0 2.6592178 0.53923035 3.619049 1.4990616c0.95983124 0.95983124 1.4990616 2.2616425 1.4990616 3.619049l0 0c0 2.8266525 -2.2914581 5.1181107 -5.1181107 5.1181107l0 0c-2.8266563 0 -5.1181107 -2.2914581 -5.1181107 -5.1181107z" fill-rule="evenodd"/><path fill="#38761d" d="m78.20735 105.05643l0 0c0 -2.8266525 2.2914505 -5.118103 5.1181107 -5.118103l0 0c1.3574066 0 2.6592178 0.5392227 3.619049 1.499054c0.95983124 0.95983124 1.4990616 2.2616425 1.4990616 3.619049l0 0c0 2.8266602 -2.2914581 5.1181107 -5.1181107 5.1181107l0 0c-2.8266602 0 -5.1181107 -2.2914505 -5.1181107 -5.1181107z" fill-rule="evenodd"/><path stroke="#000000" stroke-width="1.0" stroke-linejoin="round" stroke-linecap="butt" d="m78.20735 105.05643l0 0c0 -2.8266525 2.2914505 -5.118103 5.1181107 -5.118103l0 0c1.3574066 0 2.6592178 0.5392227 3.619049 1.499054c0.95983124 0.95983124 1.4990616 2.2616425 1.4990616 3.619049l0 0c0 2.8266602 -2.2914581 5.1181107 -5.1181107 5.1181107l0 0c-2.8266602 0 -5.1181107 -2.2914505 -5.1181107 -5.1181107z" fill-rule="evenodd"/><path fill="#000000" fill-opacity="0.0" d="m88.44312 87.27821l102.20472 0l0 35.55906l-102.20472 0z" fill-rule="evenodd"/><path fill="#000000" d="m104.06812 105.68759q0 0.875 -0.25 1.53125q-0.234375 0.65625 -0.671875 1.09375q-0.421875 0.421875 -1.015625 0.640625q-0.578125 0.203125 -1.265625 0.203125q-0.3125 0 -0.625 -0.03125q-0.296875 -0.03125 -0.625 -0.109375l0 2.734375l-1.125 0l0 -9.203125l1.0 0l0.078125 1.09375q0.484375 -0.671875 1.03125 -0.9375q0.5625 -0.28125 1.203125 -0.28125q0.5625 0 0.984375 0.234375q0.421875 0.234375 0.703125 0.671875q0.296875 0.421875 0.4375 1.03125q0.140625 0.59375 0.140625 1.328125zm-1.15625 0.0625q0 -0.515625 -0.078125 -0.9375q-0.078125 -0.4375 -0.25 -0.734375q-0.15625 -0.3125 -0.40625 -0.484375q-0.25 -0.171875 -0.609375 -0.171875q-0.203125 0 -0.4375 0.0625q-0.21875 0.0625 -0.453125 0.234375q-0.234375 0.15625 -0.5 0.421875q-0.265625 0.265625 -0.5625 0.65625l0 3.15625q0.3125 0.140625 0.65625 0.21875q0.34375 0.0625 0.671875 0.0625q0.921875 0 1.4375 -0.609375q0.53125 -0.625 0.53125 -1.875zm3.1716156 -3.203125l1.03125 0l0.03125 1.203125q0.578125 -0.703125 1.140625 -1.015625q0.5625 -0.3125 1.140625 -0.3125q1.015625 0 1.53125 0.65625q0.53125 0.65625 0.484375 1.953125l-1.140625 0q0.015625 -0.859375 -0.25 -1.234375q-0.265625 -0.390625 -0.796875 -0.390625q-0.21875 0 -0.453125 0.078125q-0.234375 0.078125 -0.484375 0.265625q-0.234375 0.171875 -0.515625 0.453125q-0.265625 0.28125 -0.578125 0.671875l0 4.203125l-1.140625 0l0 -6.53125zm12.749741 3.21875q0 0.75 -0.21875 1.390625q-0.21875 0.640625 -0.625 1.09375q-0.390625 0.4375 -0.984375 0.6875q-0.578125 0.25 -1.3125 0.25q-0.703125 0 -1.265625 -0.203125q-0.546875 -0.21875 -0.9375 -0.640625q-0.375 -0.4375 -0.59375 -1.0625q-0.203125 -0.625 -0.203125 -1.4375q0 -0.75 0.21875 -1.375q0.21875 -0.640625 0.609375 -1.09375q0.40625 -0.453125 0.984375 -0.703125q0.59375 -0.25 1.328125 -0.25q0.703125 0 1.25 0.21875q0.5625 0.21875 0.9375 0.640625q0.390625 0.421875 0.59375 1.046875q0.21875 0.625 0.21875 1.4375zm-1.15625 0.046875q0 -0.609375 -0.140625 -1.0625q-0.140625 -0.453125 -0.390625 -0.75q-0.234375 -0.296875 -0.59375 -0.453125q-0.359375 -0.15625 -0.796875 -0.15625q-0.5 0 -0.859375 0.203125q-0.359375 0.1875 -0.59375 0.53125q-0.234375 0.328125 -0.34375 0.765625q-0.109375 0.4375 -0.109375 0.921875q0 0.609375 0.140625 1.0625q0.140625 0.453125 0.375 0.765625q0.25 0.296875 0.59375 0.453125q0.359375 0.140625 0.796875 0.140625q0.515625 0 0.875 -0.1875q0.359375 -0.203125 0.59375 -0.53125q0.234375 -0.34375 0.34375 -0.78125q0.109375 -0.4375 0.109375 -0.921875zm7.8747406 3.03125q-0.453125 0.15625 -0.921875 0.234375q-0.453125 0.09375 -0.953125 0.09375q-1.546875 0 -2.390625 -0.84375q-0.828125 -0.84375 -0.828125 -2.453125q0 -0.765625 0.234375 -1.390625q0.25 -0.640625 0.671875 -1.09375q0.4375 -0.453125 1.046875 -0.6875q0.609375 -0.25 1.34375 -0.25q0.5 0 0.9375 0.078125q0.453125 0.0625 0.859375 0.234375l0 1.078125q-0.4375 -0.21875 -0.875 -0.3125q-0.4375 -0.109375 -0.90625 -0.109375q-0.4375 0 -0.828125 0.171875q-0.375 0.15625 -0.671875 0.46875q-0.296875 0.3125 -0.46875 0.765625q-0.15625 0.4375 -0.15625 1.015625q0 1.171875 0.5625 1.765625q0.578125 0.59375 1.609375 0.59375q0.453125 0 0.890625 -0.109375q0.4375 -0.109375 0.84375 -0.3125l0 1.0625zm7.765358 -3.375q0 0.234375 -0.015625 0.40625q0 0.15625 -0.015625 0.296875l-4.578125 0q0 1.0 0.546875 1.546875q0.5625 0.53125 1.625 0.53125q0.28125 0 0.5625 -0.015625q0.296875 -0.03125 0.5625 -0.0625q0.265625 -0.046875 0.5 -0.09375q0.25 -0.046875 0.453125 -0.109375l0 0.9375q-0.453125 0.125 -1.046875 0.203125q-0.578125 0.078125 -1.203125 0.078125q-0.828125 0 -1.4375 -0.21875q-0.609375 -0.234375 -1.0 -0.65625q-0.39061737 -0.4375 -0.5781174 -1.0625q-0.171875 -0.625 -0.171875 -1.421875q0 -0.6875 0.1875 -1.296875q0.203125 -0.625 0.5781174 -1.09375q0.390625 -0.46875 0.9375 -0.734375q0.5625 -0.28125 1.265625 -0.28125q0.671875 0 1.203125 0.21875q0.53125 0.21875 0.890625 0.609375q0.359375 0.390625 0.546875 0.953125q0.1875 0.5625 0.1875 1.265625zm-1.1875 -0.171875q0.03125 -0.421875 -0.078125 -0.78125q-0.109375 -0.375 -0.328125 -0.625q-0.21875 -0.265625 -0.546875 -0.40625q-0.3125 -0.15625 -0.75 -0.15625q-0.359375 0 -0.671875 0.15625q-0.3125 0.140625 -0.53125 0.40625q-0.21875 0.25 -0.359375 0.625q-0.125 0.359375 -0.15625 0.78125l3.421875 0zm8.171616 2.0q0 0.34375 -0.125 0.625q-0.109375 0.265625 -0.3125 0.484375q-0.203125 0.203125 -0.46875 0.359375q-0.265625 0.140625 -0.578125 0.25q-0.296875 0.09375 -0.625 0.125q-0.3125 0.046875 -0.609375 0.046875q-0.671875 0 -1.234375 -0.0625q-0.546875 -0.046875 -1.078125 -0.171875l0 -1.046875q0.5625 0.15625 1.125 0.25q0.578125 0.078125 1.140625 0.078125q0.8125 0 1.203125 -0.21875q0.390625 -0.21875 0.390625 -0.625q0 -0.1875 -0.0625 -0.3125q-0.0625 -0.140625 -0.234375 -0.265625q-0.15625 -0.140625 -0.5 -0.265625q-0.34375 -0.140625 -0.9375 -0.3125q-0.4375 -0.140625 -0.8125 -0.296875q-0.375 -0.171875 -0.65625 -0.390625q-0.265625 -0.234375 -0.421875 -0.53125q-0.15625 -0.3125 -0.15625 -0.734375q0 -0.265625 0.125 -0.59375q0.125 -0.328125 0.4375 -0.609375q0.3125 -0.28125 0.828125 -0.46875q0.515625 -0.1875 1.296875 -0.1875q0.390625 0 0.859375 0.046875q0.46875 0.046875 0.96875 0.140625l0 1.015625q-0.53125 -0.125 -1.015625 -0.1875q-0.46875 -0.0625 -0.828125 -0.0625q-0.421875 0 -0.71875 0.0625q-0.28125 0.0625 -0.46875 0.1875q-0.171875 0.109375 -0.25 0.265625q-0.078125 0.140625 -0.078125 0.3125q0 0.1875 0.0625 0.328125q0.078125 0.140625 0.265625 0.28125q0.1875 0.125 0.515625 0.265625q0.328125 0.125 0.859375 0.28125q0.59375 0.171875 0.984375 0.359375q0.390625 0.1875 0.640625 0.421875q0.25 0.21875 0.359375 0.515625q0.109375 0.28125 0.109375 0.640625zm6.3434906 1.78125l-0.015625 -0.875q-0.546875 0.53125 -1.09375 0.765625q-0.546875 0.21875 -1.15625 0.21875q-0.546875 0 -0.953125 -0.140625q-0.390625 -0.140625 -0.65625 -0.390625q-0.25 -0.25 -0.375 -0.578125q-0.125 -0.34375 -0.125 -0.75q0 -0.984375 0.734375 -1.53125q0.734375 -0.5625 2.171875 -0.5625l1.34375 0l0 -0.5625q0 -0.578125 -0.375 -0.921875q-0.359375 -0.359375 -1.125 -0.359375q-0.546875 0 -1.09375 0.125q-0.53125 0.125 -1.109375 0.34375l0 -1.015625q0.21875 -0.078125 0.484375 -0.15625q0.265625 -0.078125 0.546875 -0.125q0.296875 -0.0625 0.609375 -0.09375q0.328125 -0.046875 0.65625 -0.046875q0.59375 0 1.0625 0.140625q0.484375 0.125 0.8125 0.390625q0.328125 0.265625 0.5 0.671875q0.171875 0.40625 0.171875 0.953125l0 4.5l-1.015625 0zm-0.125 -2.96875l-1.4375 0q-0.421875 0 -0.734375 0.078125q-0.296875 0.078125 -0.5 0.234375q-0.1875 0.15625 -0.28125 0.375q-0.09375 0.21875 -0.09375 0.5q0 0.1875 0.0625 0.359375q0.0625 0.171875 0.1875 0.3125q0.125 0.125 0.328125 0.203125q0.21875 0.078125 0.515625 0.078125q0.390625 0 0.890625 -0.234375q0.515625 -0.234375 1.0625 -0.75l0 -1.15625zm2.9216156 -0.15625q0 -0.84375 0.234375 -1.484375q0.234375 -0.65625 0.640625 -1.09375q0.421875 -0.453125 1.015625 -0.671875q0.59375 -0.234375 1.3125 -0.234375q0.3125 0 0.609375 0.046875q0.3125 0.03125 0.59375 0.109375l0 -2.75l1.140625 0l0 9.203125l-1.015625 0l-0.03125 -1.234375q-0.484375 0.6875 -1.03125 1.015625q-0.546875 0.328125 -1.203125 0.328125q-0.546875 0 -0.984375 -0.21875q-0.421875 -0.234375 -0.703125 -0.65625q-0.28125 -0.4375 -0.4375 -1.03125q-0.140625 -0.609375 -0.140625 -1.328125zm1.171875 -0.078125q0 1.1875 0.34375 1.765625q0.34375 0.578125 0.984375 0.578125q0.421875 0 0.90625 -0.375q0.484375 -0.390625 1.0 -1.140625l0 -3.03125q-0.28125 -0.125 -0.625 -0.1875q-0.328125 -0.078125 -0.65625 -0.078125q-0.921875 0 -1.4375 0.59375q-0.515625 0.59375 -0.515625 1.875zm12.187241 -0.109375q0 0.75 -0.21875 1.390625q-0.21875 0.640625 -0.625 1.09375q-0.390625 0.4375 -0.984375 0.6875q-0.578125 0.25 -1.3125 0.25q-0.703125 0 -1.265625 -0.203125q-0.546875 -0.21875 -0.9375 -0.640625q-0.375 -0.4375 -0.59375 -1.0625q-0.203125 -0.625 -0.203125 -1.4375q0 -0.75 0.21875 -1.375q0.21875 -0.640625 0.609375 -1.09375q0.40625 -0.453125 0.984375 -0.703125q0.59375 -0.25 1.328125 -0.25q0.703125 0 1.25 0.21875q0.5625 0.21875 0.9375 0.640625q0.390625 0.421875 0.59375 1.046875q0.21875 0.625 0.21875 1.4375zm-1.15625 0.046875q0 -0.609375 -0.140625 -1.0625q-0.140625 -0.453125 -0.390625 -0.75q-0.234375 -0.296875 -0.59375 -0.453125q-0.359375 -0.15625 -0.796875 -0.15625q-0.5 0 -0.859375 0.203125q-0.359375 0.1875 -0.59375 0.53125q-0.234375 0.328125 -0.34375 0.765625q-0.109375 0.4375 -0.109375 0.921875q0 0.609375 0.140625 1.0625q0.140625 0.453125 0.375 0.765625q0.25 0.296875 0.59375 0.453125q0.359375 0.140625 0.796875 0.140625q0.515625 0 0.875 -0.1875q0.359375 -0.203125 0.59375 -0.53125q0.234375 -0.34375 0.34375 -0.78125q0.109375 -0.4375 0.109375 -0.921875zm3.0622406 -3.265625l1.03125 0l0.03125 1.203125q0.578125 -0.703125 1.140625 -1.015625q0.5625 -0.3125 1.140625 -0.3125q1.015625 0 1.53125 0.65625q0.53125 0.65625 0.484375 1.953125l-1.140625 0q0.015625 -0.859375 -0.25 -1.234375q-0.265625 -0.390625 -0.796875 -0.390625q-0.21875 0 -0.453125 0.078125q-0.234375 0.078125 -0.484375 0.265625q-0.234375 0.171875 -0.515625 0.453125q-0.265625 0.28125 -0.578125 0.671875l0 4.203125l-1.140625 0l0 -6.53125z" fill-rule="nonzero"/><path fill="#000000" fill-opacity="0.0" d="m60.548557 56.755905l102.20473 0l0 35.55906l-102.20473 0z" fill-rule="evenodd"/><path fill="#000000" d="m75.7673 76.77466q0 0.34375 -0.125 0.625q-0.109375 0.265625 -0.3125 0.484375q-0.203125 0.203125 -0.46875 0.359375q-0.265625 0.140625 -0.578125 0.25q-0.296875 0.09375 -0.625 0.125q-0.3125 0.046875 -0.609375 0.046875q-0.671875 0 -1.234375 -0.0625q-0.546875 -0.046875 -1.078125 -0.171875l0 -1.046875q0.5625 0.15625 1.125 0.25q0.578125 0.078125 1.140625 0.078125q0.8125 0 1.203125 -0.21875q0.390625 -0.21875 0.390625 -0.625q0 -0.1875 -0.0625 -0.3125q-0.0625 -0.140625 -0.234375 -0.265625q-0.15625 -0.140625 -0.5 -0.265625q-0.34375 -0.140625 -0.9375 -0.3125q-0.4375 -0.140625 -0.8125 -0.296875q-0.375 -0.171875 -0.65625 -0.390625q-0.265625 -0.234375 -0.421875 -0.53125q-0.15625 -0.3125 -0.15625 -0.734375q0 -0.265625 0.125 -0.59375q0.125 -0.328125 0.4375 -0.609375q0.3125 -0.28125 0.828125 -0.46875q0.515625 -0.1875 1.296875 -0.1875q0.390625 0 0.859375 0.046875q0.46875 0.046875 0.96875 0.140625l0 1.015625q-0.53125 -0.125 -1.015625 -0.1875q-0.46875 -0.0625 -0.828125 -0.0625q-0.421875 0 -0.71875 0.0625q-0.28125 0.0625 -0.46875 0.1875q-0.171875 0.109375 -0.25 0.265625q-0.078125 0.140625 -0.078125 0.3125q0 0.1875 0.0625 0.328125q0.078125 0.140625 0.265625 0.28125q0.1875 0.125 0.515625 0.265625q0.328125 0.125 0.859375 0.28125q0.59375 0.171875 0.984375 0.359375q0.390625 0.1875 0.640625 0.421875q0.25 0.21875 0.359375 0.515625q0.109375 0.28125 0.109375 0.640625zm7.3278656 0q0 0.34375 -0.125 0.625q-0.109375 0.265625 -0.3125 0.484375q-0.203125 0.203125 -0.46875 0.359375q-0.265625 0.140625 -0.578125 0.25q-0.296875 0.09375 -0.625 0.125q-0.3125 0.046875 -0.609375 0.046875q-0.671875 0 -1.234375 -0.0625q-0.546875 -0.046875 -1.078125 -0.171875l0 -1.046875q0.5625 0.15625 1.125 0.25q0.578125 0.078125 1.140625 0.078125q0.8125 0 1.203125 -0.21875q0.390625 -0.21875 0.390625 -0.625q0 -0.1875 -0.0625 -0.3125q-0.0625 -0.140625 -0.234375 -0.265625q-0.15625 -0.140625 -0.5 -0.265625q-0.34375 -0.140625 -0.9375 -0.3125q-0.4375 -0.140625 -0.8125 -0.296875q-0.375 -0.171875 -0.65625 -0.390625q-0.265625 -0.234375 -0.421875 -0.53125q-0.15625 -0.3125 -0.15625 -0.734375q0 -0.265625 0.125 -0.59375q0.125 -0.328125 0.4375 -0.609375q0.3125 -0.28125 0.828125 -0.46875q0.515625 -0.1875 1.296875 -0.1875q0.390625 0 0.859375 0.046875q0.46875 0.046875 0.96875 0.140625l0 1.015625q-0.53125 -0.125 -1.015625 -0.1875q-0.46875 -0.0625 -0.828125 -0.0625q-0.421875 0 -0.71875 0.0625q-0.28125 0.0625 -0.46875 0.1875q-0.171875 0.109375 -0.25 0.265625q-0.078125 0.140625 -0.078125 0.3125q0 0.1875 0.0625 0.328125q0.078125 0.140625 0.265625 0.28125q0.1875 0.125 0.515625 0.265625q0.328125 0.125 0.859375 0.28125q0.59375 0.171875 0.984375 0.359375q0.390625 0.1875 0.640625 0.421875q0.25 0.21875 0.359375 0.515625q0.109375 0.28125 0.109375 0.640625zm1.8122406 -1.34375q0 -0.84375 0.234375 -1.484375q0.234375 -0.65625 0.640625 -1.09375q0.421875 -0.453125 1.015625 -0.671875q0.59375 -0.234375 1.3125 -0.234375q0.3125 0 0.609375 0.046875q0.3125 0.03125 0.59375 0.109375l0 -2.75l1.140625 0l0 9.203125l-1.015625 0l-0.03125 -1.234375q-0.484375 0.6875 -1.03125 1.015625q-0.546875 0.328125 -1.203125 0.328125q-0.546875 0 -0.984375 -0.21875q-0.421875 -0.234375 -0.703125 -0.65625q-0.28125 -0.4375 -0.4375 -1.03125q-0.140625 -0.609375 -0.140625 -1.328125zm1.171875 -0.078125q0 1.1875 0.34375 1.765625q0.34375 0.578125 0.984375 0.578125q0.421875 0 0.90625 -0.375q0.484375 -0.390625 1.0 -1.140625l0 -3.03125q-0.28125 -0.125 -0.625 -0.1875q-0.328125 -0.078125 -0.65625 -0.078125q-0.921875 0 -1.4375 0.59375q-0.515625 0.59375 -0.515625 1.875z" fill-rule="nonzero"/></g></svg>